<svg width="369" height="369" viewBox="0 0 369 369" fill="none" xmlns="http://www.w3.org/2000/svg">
<path d="M14.314 353.189C6.50355 345.379 6.50353 332.715 14.314 324.905L324.999 14.2202C332.809 6.40975 345.472 6.40976 353.283 14.2202L354.222 15.1594C362.032 22.9699 362.032 35.6332 354.222 43.4437L43.5374 354.128C35.7269 361.939 23.0637 361.939 15.2532 354.128L14.314 353.189Z" fill="#D83939"/>
<path d="M14.3765 43.5016C6.56604 35.6911 6.56603 23.0278 14.3765 15.2173L15.3157 14.2781C23.1262 6.46763 35.7895 6.46764 43.6 14.2781L354.284 324.963C362.095 332.773 362.095 345.436 354.284 353.247L353.345 354.186C345.535 361.996 332.871 361.996 325.061 354.186L14.3765 43.5016Z" fill="#D83939"/>
</svg>
